# AST/ASF file generated using VICON BodyLanguage
# -----------------------------------------------
:version 1.10
:name VICON
:units
  mass 1.0
  length 0.45
  angle deg
:documentation
   .ast/.asf automatically generated from VICON data using
   VICON BodyBuilder and BodyLanguage model FoxedUp or BRILLIANT.MOD
:root
   order TX TY TZ RX RY RZ
   axis XYZ
   position 0 0 0  
   orientation 0 0 0 
:bonedata
  begin
     id 1 
     name lhipjoint
     direction 0.521689 -0.742065 0.420928 
     length 2.47002 
     axis 0 0 0  XYZ
  end
  begin
     id 2 
     name lfemur
     direction 0.34202 -0.939693 0  
     length 7.24654  
     axis 0 0 20  XYZ
    dof rx ry rz
    limits (-160.0 20.0)
           (-70.0 70.0)
           (-60.0 70.0)
  end
  begin
     id 3 
     name ltibia
     direction 0.34202 -0.939693 0   
     length 8.04849   
     axis 0 0 20   XYZ
    dof rx
    limits (-10.0 170.0)
  end
  begin
     id 4 
     name lfoot
     direction 0.0745411 -0.2048 0.975961   
     length 1.72367   
     axis -90 7.62852e-016 20   XYZ
    dof rx rz
    limits (-45.0 90.0)
           (-70.0 20.0)
  end
  begin
     id 5 
     name ltoes
     direction 1.53556e-011 -4.21901e-011 1   
     length 0.87311   
     axis -90 7.62852e-016 20   XYZ
    dof rx
    limits (-90.0 20.0)
  end
  begin
     id 6 
     name rhipjoint
     direction -0.52849 -0.738415 0.418857   
     length 2.48223  
     axis 0 0 0  XYZ 
  end
  begin
     id 7 
     name rfemur
     direction -0.34202 -0.939693 0   
     length 7.15571   
     axis 0 0 -20   XYZ
    dof rx ry rz
    limits (-160.0 20.0)
           (-70.0 70.0)
           (-70.0 60.0)
  end
  begin
     id 8 
     name rtibia
     direction -0.34202 -0.939693 0   
     length 7.81659   
     axis 0 0 -20   XYZ
    dof rx
    limits (-10.0 170.0)
 end
 begin
     id 9 
     name rfoot
     direction -0.0917348 -0.252039 0.963359   
     length 1.84382  
     axis -90 -7.62852e-016 -20   XYZ
    dof rx rz
    limits (-45.0 90.0)
           (-20.0 70.0)
  end
  begin
     id 10 
     name rtoes
     direction -1.53551e-011 -4.21879e-011 1   
     length 0.927771   
     axis -90 -7.62852e-016 -20   XYZ
    dof rx
    limits (-90.0 20.0)
  end
  begin
     id 11 
     name lowerback
     direction 0.00583058 0.999822 0.0179296   
     length 2.1429   
     axis 0 0 0   XYZ
    dof rx ry rz
    limits (-20.0 45.0)
           (-30.0 30.0)
           (-30.0 30.0)
  end
  begin
     id 12 
     name upperback
     direction -0.0137999 0.999752 -0.0175071   
     length 2.14252   
     axis 0 0 0   XYZ
    dof rx ry rz
    limits (-20.0 45.0)
           (-30.0 30.0)
           (-30.0 30.0)
  end
  begin
     id 13 
     name thorax
     direction -0.0158036 0.99955 -0.0254909   
     length 2.1383   
     axis 0 0 0   XYZ
    dof rx ry rz
    limits (-20.0 45.0)
           (-30.0 30.0)
           (-30.0 30.0)
  end
  begin
     id 14 
     name lowerneck
     direction -0.0101179 0.999403 -0.0330262   
     length 1.65808   
     axis 0 0 0   XYZ
    dof rx ry rz
    limits (-20.0 45.0)
           (-30.0 30.0)
           (-30.0 30.0)
  end
  begin
     id 15 
     name upperneck
     direction 0.0497734 0.995978 -0.074501   
     length 1.5897   
     axis 0 0 0   XYZ
    dof rx ry rz
    limits (-20.0 45.0)
           (-30.0 30.0)
           (-30.0 30.0)
  end
  begin
     id 16
     name head
     direction 0.0189524 0.999519 -0.0245438  
     length 1.74024  
     axis 0 0 0   XYZ
    dof rx ry rz
    limits (-20.0 45.0)
           (-30.0 30.0)
           (-30.0 30.0)
  end
  begin
     id 17 
     name lclavicle
     direction 0.945604 0.324422 0.0241537  
     length 3.59089  
     axis 0 0 0   XYZ
    dof ry rz
    limits (-20.0 10.0)
           (0.0 20.0)
  end
  begin
     id 18 
     name lhumerus
     direction 1 -4.48964e-011 -2.63524e-027   
     length 5.2391   
     axis 180 -30 -90   XYZ
    dof rx ry rz
    limits (-60.0 90.0)
           (-90.0 90.0)
           (-90.0 90.0)
  end
  begin
     id 19
     name lradius
     direction 1 -4.48969e-011 3.86978e-028   
     length 3.31467   
     axis 180 -30 -90   XYZ
    dof rx
    limits (-10.0 170.0)
  end
  begin
     id 20
     name lwrist
     direction 1 -4.48963e-011 7.20928e-028   
     length 1.65734   
     axis -5.52449e-016 90 90   XYZ
    dof ry
    limits (-180.0 0.0)
 end
  begin
     id 21 
     name lhand
     direction 1 -4.48964e-011 1.44186e-027   
     length 0.9659   
     axis -9.20027e-016 90 90   XYZ
    dof rx rz
    limits (-90.0 90.0)
           (-45.0 45.0)
  end
  begin
     id 22 
     name lfingers
     direction 1 -4.48965e-011 2.88371e-027   
     length 0.778733   
     axis -1.84005e-015 90 90   XYZ
    dof rx
    limits (0.0 90.0)
  end
  begin
     id 23
     name lthumb
     direction 0.707107 -6.34931e-011 0.707107   
     length 1.11811   
     axis -90 45 2.85299e-015   XYZ
    dof rx rz
    limits (-45.0 45.0)
           (-45.0 45.0)
  end
  begin
     id 24 
     name rclavicle
     direction -0.923762 0.370785 0.0958234   
     length 3.54196  
     axis 0 0 0   XYZ 
    dof ry rz
    limits (-10.0 20.0)
           (-20.0 0.0)
  end
  begin
     id 25 
     name rhumerus
     direction -1 -4.48966e-011 1.18702e-017  
     length 5.30252   
     axis 180 30 90   XYZ
    dof rx ry rz
    limits (-90.0 60.0)
           (-90.0 90.0)
           (-90.0 90.0)
  end
  begin
     id 26 
     name rradius
     direction -1 -4.48966e-011 4.46736e-027   
     length 3.67875   
     axis 180 30 90   XYZ
    dof rx
    limits (-10.0 170.0)
  end
  begin
     id 27 
     name rwrist
     direction -1 -4.48966e-011 7.20928e-028   
     length 1.83937   
     axis -5.52449e-016 -90 -90   XYZ
    dof ry
    limits (-180.0 0.0)
  end
  begin
     id 28
     name rhand
     direction -1 -4.48973e-011 1.44186e-027   
     length 0.594811   
     axis -9.20027e-016 -90 -90   XYZ
    dof rx rz
    limits (-90.0 90.0)
           (-45.0 45.0)
  end
  begin
     id 29
     name rfingers
     direction -1 -4.48963e-011 2.88371e-027   
     length 0.479552   
     axis -1.84005e-015 -90 -90   XYZ
    dof rx
    limits (0.0 90.0)
  end
  begin
     id 30
     name rthumb
     direction -0.707107 -6.34932e-011 0.707107   
     length 0.688544   
     axis -90 -45 -2.85299e-015   XYZ
    dof rx rz
    limits (-45.0 45.0)
           (-45.0 45.0)
  end
:hierarchy
  begin
    root lhipjoint rhipjoint lowerback
    lhipjoint lfemur
    lfemur ltibia
    ltibia lfoot
    lfoot ltoes
    rhipjoint rfemur
    rfemur rtibia
    rtibia rfoot
    rfoot rtoes
    lowerback upperback
    upperback thorax
    thorax lowerneck lclavicle rclavicle
    lowerneck upperneck
    upperneck head
    lclavicle lhumerus
    lhumerus lradius
    lradius lwrist
    lwrist lhand lthumb
    lhand lfingers
    rclavicle rhumerus
    rhumerus rradius
    rradius rwrist
    rwrist rhand rthumb
    rhand rfingers
  end

#!OML:ASF E:\acrobat2\Project_11_07_03\Capture day 1\Session 1\Acrobat.ASF
:FULLY-SPECIFIED
:DEGREES
436
root 9.75251 28.0933 -23.3361 7.17961 5.97354 -0.609437
lowerback 0.536166 1.87518 3.82288
upperback 0.660037 2.51103 -0.614755
thorax 0.569163 1.27758 -2.7687
lowerneck -1.7407 -3.88524 -1.89436
upperneck 9.88136 -5.18744 0.91384
head 3.57868 -2.59531 0.437077
rclavicle 1.34552e-014 -3.1408e-014
rhumerus -36.065 5.91161 -80.1549
rradius 32.0647
rwrist 11.3045
rhand 8.09245 -19.2805
rfingers 7.12502
rthumb 33.3149 -46.2137
lclavicle 1.34552e-014 -3.1408e-014
lhumerus -32.5691 -16.732 85.5674
lradius 37.7654
lwrist 7.02419
lhand -6.93812 -13.755
lfingers 7.12502
lthumb 18.9303 15.3439
rfemur -4.84981 -0.536471 22.7856
rtibia 12.4365
rfoot -20.918 -14.8013
rtoes -15.9328
lfemur -15.7809 -5.1305 -14.9299
ltibia 15.8016
lfoot 3.31677 2.60963
ltoes 31.6965
437
root 9.75238 28.0839 -23.2956 7.33679 5.83608 -0.492085
lowerback 0.690706 1.93545 3.93249
upperback 0.610193 2.59906 -0.651425
thorax 0.444818 1.31897 -2.87417
lowerneck -1.78291 -3.90386 -1.9119
upperneck 9.69071 -5.20397 0.85272
head 3.51884 -2.60655 0.420691
rclavicle -3.63403e-014 -1.59028e-015
rhumerus -35.9111 5.63429 -79.9127
rradius 32.1152
rwrist 11.1582
rhand 7.82353 -19.2374
rfingers 7.12502
rthumb 33.0592 -46.2251
lclavicle -3.63403e-014 -1.59028e-015
lhumerus -32.5654 -16.2856 85.4272
lradius 38.2652
lwrist 6.908
lhand -7.03817 -13.654
lfingers 7.12502
lthumb 18.8341 15.4542
rfemur -5.19181 -0.206734 22.8984
rtibia 12.233
rfoot -20.9203 -15.4242
rtoes -14.7252
lfemur -16.1595 -4.50451 -14.8531
ltibia 15.9453
lfoot 3.06977 2.0734
ltoes 30.3052
438
root 9.7513 28.0763 -23.2569 7.47924 5.70028 -0.340916
lowerback 0.860674 1.96529 3.97505
upperback 0.593836 2.64652 -0.69132
thorax 0.340408 1.3406 -2.94579
lowerneck -1.8504 -3.90207 -1.9008
upperneck 9.48146 -5.19271 0.773408
head 3.45547 -2.60358 0.394277
rclavicle -6.33626e-015 -1.39149e-015
rhumerus -35.6498 5.29371 -79.6584
rradius 32.1098
rwrist 11.0066
rhand 7.39587 -19.1721
rfingers 7.12502
rthumb 32.6524 -46.245
lclavicle -6.33626e-015 -1.39149e-015
lhumerus -32.5699 -15.7581 85.2552
lradius 38.7899
lwrist 6.84164
lhand -7.12771 -13.5362
lfingers 7.12502
lthumb 18.748 15.5803
rfemur -5.57956 0.0862251 22.9553
rtibia 12.1401
rfoot -20.8651 -16.0538
rtoes -13.3068
lfemur -16.5205 -3.81433 -14.8539
ltibia 16.1238
lfoot 2.7398 1.302
ltoes 28.3853
439
root 9.74927 28.0709 -23.22 7.60333 5.59317 -0.158441
lowerback 1.033 1.95422 3.94846
upperback 0.620329 2.63832 -0.722835
thorax 0.270681 1.33548 -2.96942
lowerneck -1.95143 -3.86998 -1.88565
upperneck 9.25459 -5.1397 0.682329
head 3.3914 -2.5801 0.364503
rclavicle 2.03754e-015 -1.41137e-014
rhumerus -35.2819 4.9212 -79.3886
rradius 32.0723
rwrist 10.8029
rhand 6.78553 -19.0847
rfingers 7.12502
rthumb 32.0715 -46.2763
lclavicle 2.03754e-015 -1.41137e-014
lhumerus -32.5639 -15.1548 85.0702
lradius 39.3081
lwrist 6.81799
lhand -7.36062 -13.5576
lfingers 7.12502
lthumb 18.524 15.5804
rfemur -6.0053 0.346788 22.9486
rtibia 12.1522
rfoot -20.7461 -16.6371
rtoes -11.7895
lfemur -16.865 -3.1339 -14.9296
ltibia 16.3419
lfoot 2.36879 0.370927
ltoes 26.2983
440
root 9.74649 28.068 -23.1843 7.70335 5.52645 0.0342299
lowerback 1.22264 1.9056 3.89015
upperback 0.67455 2.57984 -0.750074
thorax 0.214045 1.3058 -2.97077
lowerneck -2.04896 -3.80485 -1.86692
upperneck 8.99454 -5.04295 0.591904
head 3.31474 -2.53473 0.336493
rclavicle -5.76476e-015 1.11319e-014
rhumerus -34.8743 4.52848 -79.1234
rradius 32.0554
rwrist 10.4922
rhand 6.0484 -19.0538
rfingers 7.12502
rthumb 31.3694 -46.3841
lclavicle -5.76476e-015 1.11319e-014
lhumerus -32.5627 -14.5263 84.8808
lradius 39.7958
lwrist 6.84106
lhand -7.65634 -13.6072
lfingers 7.12502
lthumb 18.2395 15.5577
rfemur -6.45606 0.568261 22.8906
rtibia 12.2487
rfoot -20.5433 -17.117
rtoes -10.2916
lfemur -17.193 -2.53033 -15.051
ltibia 16.613
lfoot 2.00165 -0.637467
ltoes 24.5666
441
root 9.74315 28.0678 -23.1493 7.77403 5.50085 0.21463
lowerback 1.42587 1.82841 3.82191
upperback 0.755917 2.48302 -0.767159
thorax 0.173787 1.25767 -2.95553
lowerneck -2.12188 -3.7062 -1.83328
upperneck 8.66076 -4.90157 0.487522
head 3.2069 -2.46718 0.304442
rclavicle 1.63252e-014 -6.16232e-015
rhumerus -34.4648 4.10907 -78.8565
rradius 32.1012
rwrist 10.0726
rhand 5.26439 -19.1189
rfingers 7.12502
rthumb 30.6221 -46.5917
lclavicle 1.63252e-014 -6.16232e-015
lhumerus -32.5543 -13.9363 84.7055
lradius 40.2392
lwrist 6.93277
lhand -8.09483 -13.8752
lfingers 7.12502
lthumb 17.8176 15.3285
rfemur -6.91811 0.746657 22.7983
rtibia 12.4035
rfoot -20.2362 -17.4504
rtoes -8.79581
lfemur -17.5078 -2.04989 -15.186
ltibia 16.9732
lfoot 1.66809 -1.66582
ltoes 23.4779
442
root 9.74027 28.0707 -23.1136 7.81287 5.51193 0.372895
lowerback 1.63655 1.7328 3.76508
upperback 0.859414 2.36149 -0.777096
thorax 0.150467 1.19788 -2.93844
lowerneck -2.15753 -3.59336 -1.77603
upperneck 8.25899 -4.74235 0.366877
head 3.06814 -2.39041 0.265249
rclavicle -1.98785e-015 5.76476e-015
rhumerus -34.0806 3.64267 -78.5832
rradius 32.2226
rwrist 9.60583
rhand 4.46879 -19.2395
rfingers 7.12502
rthumb 29.8632 -46.8515
lclavicle -1.98785e-015 5.76476e-015
lhumerus -32.5338 -13.4384 84.5566
lradius 40.6255
lwrist 7.10193
lhand -8.65927 -14.3212
lfingers 7.12502
lthumb 17.2744 14.9311
rfemur -7.3829 0.85377 22.6747
rtibia 12.6043
rfoot -19.8077 -17.6182
rtoes -7.32846
lfemur -17.8121 -1.72395 -15.3238
ltibia 17.4722
lfoot 1.35757 -2.69222
ltoes 23.077
